<svg width="198" height="36" viewBox="0 0 198 36" fill="none" xmlns="http://www.w3.org/2000/svg">
<path fill-rule="evenodd" clip-rule="evenodd" d="M9.29934 5.72981C6.92262 8.14916 4.96094 12.4408 3.90767 15.7862C3.57595 16.8398 2.45294 17.4249 1.39936 17.0932C0.345775 16.7615 -0.239412 15.6385 0.0923055 14.5849C1.20945 11.0367 3.40494 6.02211 6.44589 2.92663C7.97815 1.36689 9.95311 0.0648794 12.3101 0.00235343C14.7322 -0.0618963 16.9944 1.19127 19.0343 3.53089C20.2742 4.95302 21.1157 6.36056 21.4057 7.79078C21.7155 9.31834 21.3562 10.6765 20.5743 11.8024C19.8461 12.851 18.7933 13.6429 17.7636 14.2717C16.7196 14.9092 15.5276 15.4792 14.4004 16.0079C14.3138 16.0485 14.2276 16.0889 14.1419 16.1291C11.8575 17.1997 9.90213 18.116 8.65424 19.2984C8.05477 19.8665 7.72548 20.4052 7.58944 20.9485C7.45633 21.48 7.45744 22.217 7.87093 23.2804C8.69939 25.4109 10.7733 27.4488 13.6749 29.0557C16.5418 30.6434 19.9773 31.6724 23.1387 31.9342C26.3675 32.2015 28.9458 31.6451 30.423 30.505C31.1202 29.9669 31.5993 29.2836 31.8342 28.3959C32.0759 27.4827 32.0904 26.2275 31.6258 24.5346C30.7566 21.3681 28.8358 19.8579 26.6225 19.2348C24.2817 18.5758 21.4958 18.8954 19.2 19.7571C18.0643 20.1834 17.1375 20.7103 16.5036 21.2275C16.1885 21.4847 15.9762 21.7146 15.8454 21.8982C15.7905 21.9752 15.7554 22.0362 15.7332 22.0809C15.7663 22.1107 15.8154 22.1504 15.8866 22.2007C16.3511 22.5285 17.3765 22.9569 19.3206 23.2431C20.4134 23.4039 21.1689 24.4202 21.008 25.513C20.8472 26.6058 19.8309 27.3613 18.7381 27.2004C16.5501 26.8783 14.7973 26.3278 13.5802 25.4688C12.2584 24.536 11.4662 23.1268 11.7577 21.4762C12.0069 20.0658 12.9836 18.9371 13.9747 18.1284C15.0166 17.2782 16.3475 16.5553 17.7944 16.0122C20.6638 14.9352 24.3422 14.4374 27.7065 15.3845C31.1984 16.3676 34.2236 18.8871 35.4831 23.4758C36.0828 25.6606 36.1678 27.6557 35.7011 29.4191C35.2278 31.2079 34.22 32.6274 32.8668 33.6717C30.2432 35.6965 26.4667 36.2234 22.8086 35.9205C19.0831 35.6121 15.0996 34.4171 11.737 32.5549C8.40912 30.7119 5.44308 28.0738 4.14287 24.7301C3.49202 23.0563 3.33661 21.4648 3.70926 19.9768C4.07897 18.5004 4.91771 17.3285 5.90301 16.3949C7.6422 14.7469 10.1606 13.5722 12.2273 12.6082C12.3884 12.533 12.5468 12.4591 12.7019 12.3864C13.8443 11.8506 14.8475 11.3656 15.6788 10.8579C16.5244 10.3416 17.027 9.89793 17.2888 9.52088C17.4969 9.22124 17.5622 8.96371 17.4855 8.58573C17.3891 8.1104 17.0333 7.32253 16.0193 6.15958C14.4529 4.36307 13.2425 3.97903 12.4162 4.00095C11.5249 4.02459 10.4759 4.53213 9.29934 5.72981ZM15.6708 22.012C15.672 22.0121 15.6773 22.0184 15.6832 22.0306C15.6726 22.018 15.6697 22.0119 15.6708 22.012Z" fill="#111111"/>
<path d="M51.472 28.14C51.1173 28.14 50.8187 28.0187 50.576 27.776C50.3333 27.5333 50.212 27.2347 50.212 26.88V14.868C50.212 14.5133 50.3333 14.2147 50.576 13.972C50.8187 13.7107 51.1173 13.58 51.472 13.58C51.8267 13.58 52.1253 13.7107 52.368 13.972C52.6293 14.2147 52.76 14.5133 52.76 14.868V16.016C53.4693 15.232 54.2347 14.6067 55.056 14.14C55.8773 13.6733 56.848 13.44 57.968 13.44C58.9947 13.44 59.8813 13.6827 60.628 14.168C61.3933 14.6533 61.972 15.316 62.364 16.156C62.7747 16.996 62.98 17.92 62.98 18.928V26.88C62.98 27.2347 62.8493 27.5333 62.588 27.776C62.3453 28.0187 62.0467 28.14 61.692 28.14C61.3373 28.14 61.0387 28.0187 60.796 27.776C60.5533 27.5333 60.432 27.2347 60.432 26.88V19.208C60.432 16.9307 59.4053 15.792 57.352 15.792C56.4187 15.792 55.5787 16.0347 54.832 16.52C54.104 17.0053 53.4133 17.6587 52.76 18.48V26.88C52.76 27.2347 52.6293 27.5333 52.368 27.776C52.1253 28.0187 51.8267 28.14 51.472 28.14ZM70.643 28.14C70.2884 28.14 69.9897 28.0187 69.747 27.776C69.5044 27.5333 69.383 27.2347 69.383 26.88V15.904H67.731C67.4324 15.904 67.171 15.8013 66.947 15.596C66.7417 15.372 66.639 15.1107 66.639 14.812C66.639 14.4947 66.7417 14.2333 66.947 14.028C67.171 13.8227 67.4324 13.72 67.731 13.72H69.383V12.096C69.383 10.976 69.579 10.0613 69.971 9.352C70.3817 8.624 70.9044 8.10133 71.539 7.784C72.1924 7.448 72.8737 7.28 73.583 7.28C74.4604 7.28 75.2724 7.46667 76.019 7.84C76.2057 7.93333 76.355 8.07333 76.467 8.26C76.5977 8.428 76.663 8.61467 76.663 8.82C76.663 9.1 76.5604 9.352 76.355 9.576C76.1497 9.78133 75.907 9.884 75.627 9.884C75.4217 9.884 75.207 9.856 74.983 9.8C74.535 9.744 74.283 9.716 74.227 9.716C73.4617 9.716 72.883 9.89333 72.491 10.248C72.1177 10.6027 71.931 11.2467 71.931 12.18V13.72H75.431C75.7484 13.72 76.0097 13.8227 76.215 14.028C76.4204 14.2333 76.523 14.4947 76.523 14.812C76.523 15.1107 76.4204 15.372 76.215 15.596C76.0097 15.8013 75.7484 15.904 75.431 15.904H71.931V26.88C71.931 27.2347 71.8004 27.5333 71.539 27.776C71.2964 28.0187 70.9977 28.14 70.643 28.14ZM85.065 28.28C82.3397 28.28 80.977 27.048 80.977 24.584V15.904H78.989C78.8397 15.904 78.709 15.8573 78.597 15.764C78.5037 15.652 78.457 15.5213 78.457 15.372C78.457 15.1853 78.541 15.0267 78.709 14.896L82.517 11.172C82.685 11.004 82.8437 10.92 82.993 10.92C83.1423 10.92 83.2637 10.976 83.357 11.088C83.469 11.2 83.525 11.3307 83.525 11.48V13.72H86.689C87.0063 13.72 87.2677 13.8227 87.473 14.028C87.6783 14.2333 87.781 14.4947 87.781 14.812C87.781 15.1107 87.6783 15.372 87.473 15.596C87.2677 15.8013 87.0063 15.904 86.689 15.904H83.525V24.36C83.525 25.088 83.693 25.5547 84.029 25.76C84.3837 25.9467 84.8223 26.04 85.345 26.04C85.7183 26.04 86.0917 25.984 86.465 25.872C86.5397 25.8533 86.6143 25.8347 86.689 25.816C86.7823 25.7973 86.8943 25.788 87.025 25.788C87.2863 25.788 87.5197 25.8907 87.725 26.096C87.9303 26.2827 88.033 26.516 88.033 26.796C88.033 27.2253 87.8183 27.552 87.389 27.776C86.661 28.112 85.8863 28.28 85.065 28.28ZM93.4884 28.14C93.1337 28.14 92.8351 28.0187 92.5924 27.776C92.3497 27.5333 92.2284 27.2347 92.2284 26.88V8.708C92.2284 8.35333 92.3497 8.05467 92.5924 7.812C92.8351 7.55067 93.1337 7.42 93.4884 7.42C93.8617 7.42 94.1697 7.54133 94.4124 7.784C94.6551 8.02667 94.7764 8.33467 94.7764 8.708V26.88C94.7764 27.2347 94.6457 27.5333 94.3844 27.776C94.1417 28.0187 93.8431 28.14 93.4884 28.14ZM104.241 28.28C103.42 28.28 102.654 28.112 101.945 27.776C101.254 27.44 100.704 26.9547 100.293 26.32C99.8824 25.6667 99.6771 24.92 99.6771 24.08C99.6771 22.6987 100.218 21.5973 101.301 20.776C102.402 19.9547 104.008 19.544 106.117 19.544H109.505V19.32C109.505 18.088 109.197 17.2013 108.581 16.66C107.984 16.1187 107.041 15.848 105.753 15.848C105.044 15.848 104.409 15.904 103.849 16.016C103.308 16.128 102.701 16.296 102.029 16.52C101.88 16.5573 101.758 16.576 101.665 16.576C101.385 16.576 101.142 16.4733 100.937 16.268C100.732 16.0627 100.629 15.8107 100.629 15.512C100.629 15.008 100.872 14.6533 101.357 14.448C102.944 13.776 104.558 13.44 106.201 13.44C107.489 13.44 108.572 13.7013 109.449 14.224C110.345 14.7467 110.998 15.428 111.409 16.268C111.838 17.0893 112.053 17.9853 112.053 18.956V26.88C112.053 27.2347 111.922 27.5333 111.661 27.776C111.418 28.0187 111.12 28.14 110.765 28.14C110.41 28.14 110.112 28.0187 109.869 27.776C109.626 27.5333 109.505 27.2347 109.505 26.88V26.152C108.124 27.5707 106.369 28.28 104.241 28.28ZM105.193 26.04C106.014 26.04 106.808 25.844 107.573 25.452C108.338 25.0413 108.982 24.5373 109.505 23.94V21.588H106.453C103.634 21.588 102.225 22.3253 102.225 23.8C102.225 24.472 102.449 25.0133 102.897 25.424C103.364 25.8347 104.129 26.04 105.193 26.04ZM118.984 28.14C118.629 28.14 118.33 28.0187 118.088 27.776C117.845 27.5333 117.724 27.2347 117.724 26.88V14.868C117.724 14.5133 117.845 14.2147 118.088 13.972C118.33 13.7107 118.629 13.58 118.984 13.58C119.338 13.58 119.637 13.7107 119.88 13.972C120.141 14.2147 120.272 14.5133 120.272 14.868V16.016C120.981 15.232 121.746 14.6067 122.568 14.14C123.389 13.6733 124.36 13.44 125.48 13.44C126.506 13.44 127.393 13.6827 128.14 14.168C128.905 14.6533 129.484 15.316 129.876 16.156C130.286 16.996 130.492 17.92 130.492 18.928V26.88C130.492 27.2347 130.361 27.5333 130.1 27.776C129.857 28.0187 129.558 28.14 129.204 28.14C128.849 28.14 128.55 28.0187 128.308 27.776C128.065 27.5333 127.944 27.2347 127.944 26.88V19.208C127.944 16.9307 126.917 15.792 124.864 15.792C123.93 15.792 123.09 16.0347 122.344 16.52C121.616 17.0053 120.925 17.6587 120.272 18.48V26.88C120.272 27.2347 120.141 27.5333 119.88 27.776C119.637 28.0187 119.338 28.14 118.984 28.14ZM142.094 28.28C140.937 28.28 139.836 27.9907 138.79 27.412C137.764 26.8147 136.924 25.956 136.27 24.836C135.636 23.6973 135.318 22.372 135.318 20.86C135.318 19.348 135.636 18.032 136.27 16.912C136.924 15.7733 137.764 14.9147 138.79 14.336C139.836 13.7387 140.937 13.44 142.094 13.44C143.924 13.44 145.52 14.1493 146.882 15.568V8.708C146.882 8.33467 147.004 8.02667 147.246 7.784C147.508 7.54133 147.816 7.42 148.17 7.42C148.525 7.42 148.824 7.55067 149.066 7.812C149.309 8.05467 149.43 8.35333 149.43 8.708V26.88C149.43 27.2347 149.309 27.5333 149.066 27.776C148.824 28.0187 148.525 28.14 148.17 28.14C147.816 28.14 147.508 28.0187 147.246 27.776C147.004 27.5333 146.882 27.2347 146.882 26.88V26.152C145.52 27.5707 143.924 28.28 142.094 28.28ZM142.458 25.9C143.317 25.9 144.12 25.7133 144.866 25.34C145.632 24.948 146.304 24.4347 146.882 23.8V17.92C146.304 17.2853 145.632 16.7813 144.866 16.408C144.12 16.016 143.317 15.82 142.458 15.82C141.077 15.82 139.966 16.2587 139.126 17.136C138.286 18.0133 137.866 19.2547 137.866 20.86C137.866 22.4653 138.286 23.7067 139.126 24.584C139.966 25.4613 141.077 25.9 142.458 25.9ZM156.454 10.808C156.062 10.808 155.726 10.668 155.446 10.388C155.166 10.108 155.026 9.772 155.026 9.38V9.268C155.026 8.876 155.166 8.54 155.446 8.26C155.726 7.98 156.062 7.84 156.454 7.84H156.622C157.014 7.84 157.35 7.98 157.63 8.26C157.91 8.54 158.05 8.876 158.05 9.268V9.38C158.05 9.772 157.91 10.108 157.63 10.388C157.35 10.668 157.014 10.808 156.622 10.808H156.454ZM156.51 28.14C156.156 28.14 155.857 28.0187 155.614 27.776C155.372 27.5333 155.25 27.2347 155.25 26.88V14.868C155.25 14.5133 155.372 14.2147 155.614 13.972C155.857 13.7107 156.156 13.58 156.51 13.58C156.884 13.58 157.192 13.7013 157.434 13.944C157.677 14.1867 157.798 14.4947 157.798 14.868V26.88C157.798 27.2347 157.668 27.5333 157.406 27.776C157.164 28.0187 156.865 28.14 156.51 28.14ZM164.883 28.14C164.528 28.14 164.23 28.0187 163.987 27.776C163.744 27.5333 163.623 27.2347 163.623 26.88V14.868C163.623 14.5133 163.744 14.2147 163.987 13.972C164.23 13.7107 164.528 13.58 164.883 13.58C165.238 13.58 165.536 13.7107 165.779 13.972C166.04 14.2147 166.171 14.5133 166.171 14.868V16.016C166.88 15.232 167.646 14.6067 168.467 14.14C169.288 13.6733 170.259 13.44 171.379 13.44C172.406 13.44 173.292 13.6827 174.039 14.168C174.804 14.6533 175.383 15.316 175.775 16.156C176.186 16.996 176.391 17.92 176.391 18.928V26.88C176.391 27.2347 176.26 27.5333 175.999 27.776C175.756 28.0187 175.458 28.14 175.103 28.14C174.748 28.14 174.45 28.0187 174.207 27.776C173.964 27.5333 173.843 27.2347 173.843 26.88V19.208C173.843 16.9307 172.816 15.792 170.763 15.792C169.83 15.792 168.99 16.0347 168.243 16.52C167.515 17.0053 166.824 17.6587 166.171 18.48V26.88C166.171 27.2347 166.04 27.5333 165.779 27.776C165.536 28.0187 165.238 28.14 164.883 28.14ZM188.749 34.72C187.667 34.72 186.575 34.58 185.473 34.3C184.372 34.02 183.467 33.6747 182.757 33.264C182.421 33.0587 182.253 32.732 182.253 32.284C182.253 31.9853 182.356 31.7147 182.561 31.472C182.785 31.248 183.056 31.136 183.373 31.136C183.523 31.136 183.691 31.1733 183.877 31.248C185.296 31.9573 186.836 32.312 188.497 32.312C191.353 32.312 192.781 30.7907 192.781 27.748V25.872C191.456 27.2907 189.86 28 187.993 28C186.892 28 185.819 27.7293 184.773 27.188C183.747 26.628 182.897 25.8067 182.225 24.724C181.553 23.6227 181.217 22.288 181.217 20.72C181.217 19.152 181.553 17.8267 182.225 16.744C182.897 15.6427 183.747 14.8213 184.773 14.28C185.819 13.72 186.892 13.44 187.993 13.44C189.86 13.44 191.456 14.1493 192.781 15.568V14.868C192.781 14.5133 192.903 14.2147 193.145 13.972C193.388 13.7107 193.687 13.58 194.041 13.58C194.396 13.58 194.695 13.7107 194.937 13.972C195.199 14.2147 195.329 14.5133 195.329 14.868V27.384C195.329 29.736 194.76 31.5467 193.621 32.816C192.483 34.0853 190.859 34.72 188.749 34.72ZM188.525 25.676C189.403 25.676 190.177 25.4893 190.849 25.116C191.521 24.7427 192.165 24.2387 192.781 23.604V17.836C192.165 17.2013 191.521 16.6973 190.849 16.324C190.177 15.9507 189.403 15.764 188.525 15.764C187.125 15.764 185.977 16.1933 185.081 17.052C184.204 17.892 183.765 19.1147 183.765 20.72C183.765 22.3253 184.204 23.5573 185.081 24.416C185.977 25.256 187.125 25.676 188.525 25.676Z" fill="#111111"/>
<path d="M50.576 27.776L51.2831 27.0689H51.2831L50.576 27.776ZM50.576 13.972L51.2831 14.6791L51.2962 14.666L51.3088 14.6524L50.576 13.972ZM52.368 13.972L51.6352 14.6524L51.6604 14.6796L51.6875 14.7048L52.368 13.972ZM52.76 16.016H51.76V18.6118L53.5015 16.6869L52.76 16.016ZM55.056 14.14L55.55 15.0095L55.056 14.14ZM60.628 14.168L60.083 15.0065L60.0925 15.0125L60.628 14.168ZM62.364 16.156L61.4578 16.5789L61.4616 16.5871L61.4656 16.5952L62.364 16.156ZM62.588 27.776L61.9075 27.0432L61.894 27.0558L61.8809 27.0689L62.588 27.776ZM60.796 27.776L60.0889 28.4831H60.0889L60.796 27.776ZM54.832 16.52L54.287 15.6815L54.2773 15.6879L54.832 16.52ZM52.76 18.48L51.9774 17.8575L51.76 18.1308V18.48H52.76ZM52.368 27.776L51.6875 27.0432L51.674 27.0558L51.6609 27.0689L52.368 27.776ZM51.472 27.14C51.3726 27.14 51.3313 27.1171 51.2831 27.0689L49.8689 28.4831C50.306 28.9202 50.862 29.14 51.472 29.14V27.14ZM51.2831 27.0689C51.2349 27.0207 51.212 26.9794 51.212 26.88H49.212C49.212 27.49 49.4318 28.046 49.8689 28.4831L51.2831 27.0689ZM51.212 26.88V14.868H49.212V26.88H51.212ZM51.212 14.868C51.212 14.7686 51.2349 14.7273 51.2831 14.6791L49.8689 13.2649C49.4318 13.702 49.212 14.258 49.212 14.868H51.212ZM51.3088 14.6524C51.3634 14.5936 51.3971 14.58 51.472 14.58V12.58C50.8375 12.58 50.2739 12.8277 49.8432 13.2915L51.3088 14.6524ZM51.472 14.58C51.5469 14.58 51.5806 14.5936 51.6352 14.6524L53.1008 13.2915C52.6701 12.8277 52.1065 12.58 51.472 12.58V14.58ZM51.6875 14.7048C51.7464 14.7594 51.76 14.7931 51.76 14.868H53.76C53.76 14.2335 53.5123 13.6699 53.0485 13.2392L51.6875 14.7048ZM51.76 14.868V16.016H53.76V14.868H51.76ZM53.5015 16.6869C54.1479 15.9725 54.8315 15.4177 55.55 15.0095L54.562 13.2705C53.6378 13.7957 52.7908 14.4915 52.0185 15.3451L53.5015 16.6869ZM55.55 15.0095C56.195 14.643 56.9889 14.44 57.968 14.44V12.44C56.7071 12.44 55.5597 12.7037 54.562 13.2705L55.55 15.0095ZM57.968 14.44C58.8315 14.44 59.5222 14.6419 60.083 15.0064L61.173 13.3296C60.2404 12.7234 59.1578 12.44 57.968 12.44V14.44ZM60.0925 15.0125C60.6927 15.3931 61.1446 15.9077 61.4578 16.5789L63.2702 15.7331C62.7994 14.7243 62.094 13.9135 61.1635 13.3235L60.0925 15.0125ZM61.4656 16.5952C61.8043 17.288 61.98 18.0601 61.98 18.928H63.98C63.98 17.7799 63.745 16.704 63.2624 15.7168L61.4656 16.5952ZM61.98 18.928V26.88H63.98V18.928H61.98ZM61.98 26.88C61.98 26.9549 61.9664 26.9886 61.9075 27.0432L63.2685 28.5088C63.7323 28.0781 63.98 27.5145 63.98 26.88H61.98ZM61.8809 27.0689C61.8327 27.1171 61.7914 27.14 61.692 27.14V29.14C62.302 29.14 62.858 28.9202 63.2951 28.4831L61.8809 27.0689ZM61.692 27.14C61.5926 27.14 61.5513 27.1171 61.5031 27.0689L60.0889 28.4831C60.526 28.9202 61.082 29.14 61.692 29.14V27.14ZM61.5031 27.0689C61.4549 27.0207 61.432 26.9794 61.432 26.88H59.432C59.432 27.49 59.6518 28.046 60.0889 28.4831L61.5031 27.0689ZM61.432 26.88V19.208H59.432V26.88H61.432ZM61.432 19.208C61.432 17.9393 61.1483 16.801 60.4047 15.9764C59.6434 15.132 58.5611 14.792 57.352 14.792V16.792C58.1963 16.792 58.654 17.0213 58.9193 17.3156C59.2024 17.6296 59.432 18.1994 59.432 19.208H61.432ZM57.352 14.792C56.235 14.792 55.2039 15.0856 54.287 15.6816L55.377 17.3584C55.9534 16.9838 56.6023 16.792 57.352 16.792V14.792ZM54.2773 15.6879C53.4477 16.241 52.6829 16.9706 51.9774 17.8575L53.5426 19.1025C54.1438 18.3468 54.7603 17.7696 55.3867 17.352L54.2773 15.6879ZM51.76 18.48V26.88H53.76V18.48H51.76ZM51.76 26.88C51.76 26.9549 51.7464 26.9886 51.6875 27.0432L53.0485 28.5088C53.5123 28.0781 53.76 27.5145 53.76 26.88H51.76ZM51.6609 27.0689C51.6127 27.1171 51.5714 27.14 51.472 27.14V29.14C52.082 29.14 52.638 28.9202 53.0751 28.4831L51.6609 27.0689ZM69.747 27.776L70.4541 27.0689L69.747 27.776ZM69.383 15.904H70.383V14.904H69.383V15.904ZM66.947 15.596L66.2099 16.2717L66.2393 16.3038L66.2713 16.3332L66.947 15.596ZM66.947 14.028L66.2713 13.2908L66.2553 13.3055L66.2399 13.3209L66.947 14.028ZM69.383 13.72V14.72H70.383V13.72H69.383ZM69.971 9.352L69.1 8.86066L69.0958 8.86831L69.971 9.352ZM71.539 7.784L71.9863 8.67848L71.9964 8.67329L71.539 7.784ZM76.019 7.84L75.5718 8.73443L75.5718 8.73443L76.019 7.84ZM76.467 8.26L75.6095 8.77449L75.6406 8.82627L75.6777 8.87394L76.467 8.26ZM76.355 9.576L77.0621 10.2831L77.0775 10.2677L77.0922 10.2517L76.355 9.576ZM74.983 9.8L75.2256 8.82986L75.167 8.81521L75.1071 8.80772L74.983 9.8ZM72.491 10.248L71.8201 9.50646L71.8111 9.51462L71.8023 9.523L72.491 10.248ZM71.931 13.72H70.931V14.72H71.931V13.72ZM76.215 14.028L75.5079 14.7351L75.5079 14.7351L76.215 14.028ZM76.215 15.596L76.9221 16.3031L76.9375 16.2877L76.9522 16.2717L76.215 15.596ZM71.931 15.904V14.904H70.931V15.904H71.931ZM71.539 27.776L70.8586 27.0432L70.845 27.0558L70.8319 27.0689L71.539 27.776ZM70.643 27.14C70.5437 27.14 70.5024 27.1171 70.4541 27.0689L69.0399 28.4831C69.477 28.9202 70.0331 29.14 70.643 29.14V27.14ZM70.4541 27.0689C70.4059 27.0207 70.383 26.9794 70.383 26.88H68.383C68.383 27.49 68.6028 28.046 69.0399 28.4831L70.4541 27.0689ZM70.383 26.88V15.904H68.383V26.88H70.383ZM69.383 14.904H67.731V16.904H69.383V14.904ZM67.731 14.904C67.6873 14.904 67.6659 14.8984 67.6228 14.8588L66.2713 16.3332C66.6762 16.7043 67.1774 16.904 67.731 16.904V14.904ZM67.6842 14.9203C67.6446 14.8771 67.639 14.8557 67.639 14.812H65.639C65.639 15.3656 65.8387 15.8669 66.2099 16.2717L67.6842 14.9203ZM67.639 14.812C67.639 14.7623 67.6468 14.7437 67.6468 14.7437C67.647 14.7431 67.6471 14.743 67.647 14.7432C67.6469 14.7434 67.6468 14.7435 67.6469 14.7433C67.647 14.7432 67.6474 14.7426 67.6484 14.7413C67.6495 14.7401 67.6513 14.738 67.6541 14.7351L66.2399 13.3209C65.8287 13.7321 65.639 14.2565 65.639 14.812H67.639ZM67.6228 14.7652C67.6659 14.7256 67.6873 14.72 67.731 14.72V12.72C67.1774 12.72 66.6762 12.9197 66.2713 13.2908L67.6228 14.7652ZM67.731 14.72H69.383V12.72H67.731V14.72ZM70.383 13.72V12.096H68.383V13.72H70.383ZM70.383 12.096C70.383 11.0837 70.5614 10.3511 70.8463 9.83569L69.0958 8.86831C68.5966 9.77154 68.383 10.8683 68.383 12.096H70.383ZM70.842 9.84332C71.1726 9.25735 71.5597 8.89169 71.9862 8.67843L71.0918 6.88957C70.249 7.31098 69.5908 7.99065 69.1001 8.86068L70.842 9.84332ZM71.9964 8.67329C72.5135 8.40736 73.0386 8.28 73.583 8.28V6.28C72.7088 6.28 71.8713 6.48864 71.0817 6.89471L71.9964 8.67329ZM73.583 8.28C74.3133 8.28 74.9711 8.43407 75.5718 8.73443L76.4662 6.94557C75.5736 6.49926 74.6075 6.28 73.583 6.28V8.28ZM75.5718 8.73443C75.5808 8.73893 75.591 8.74352 75.6095 8.77449L77.3245 7.7455C77.1191 7.40314 76.8306 7.12773 76.4662 6.94557L75.5718 8.73443ZM75.6777 8.87394C75.6816 8.87892 75.6759 8.87281 75.6702 8.85635C75.6675 8.84876 75.6656 8.84106 75.6644 8.8339C75.6632 8.82679 75.663 8.82191 75.663 8.82H77.663C77.663 8.38369 77.5182 7.98268 77.2564 7.64606L75.6777 8.87394ZM75.663 8.82C75.663 8.83447 75.661 8.839 75.6599 8.8417C75.6583 8.84574 75.6497 8.8656 75.6179 8.90027L77.0922 10.2517C77.4509 9.86041 77.663 9.37247 77.663 8.82H75.663ZM75.6479 8.86889C75.6369 8.87995 75.6299 8.88507 75.6275 8.88671C75.6253 8.88823 75.626 8.88745 75.6294 8.88603C75.6328 8.88459 75.6358 8.88379 75.6373 8.8835C75.6386 8.88324 75.6356 8.884 75.627 8.884V10.884C76.183 10.884 76.677 10.6682 77.0621 10.2831L75.6479 8.86889ZM75.627 8.884C75.5129 8.884 75.3799 8.86845 75.2256 8.82986L74.7405 10.7701C75.0341 10.8436 75.3305 10.884 75.627 10.884V8.884ZM75.1071 8.80772C74.8814 8.77952 74.7012 8.75786 74.5685 8.74311C74.4676 8.73191 74.3241 8.716 74.227 8.716V10.716C74.1891 10.716 74.172 10.7132 74.2152 10.7171C74.2443 10.7198 74.2876 10.7242 74.3476 10.7309C74.4669 10.7441 74.6366 10.7645 74.859 10.7923L75.1071 8.80772ZM74.227 8.716C73.3234 8.716 72.4637 8.92421 71.8201 9.50646L73.1619 10.9895C73.3024 10.8625 73.6 10.716 74.227 10.716V8.716ZM71.8023 9.523C71.1194 10.1718 70.931 11.1768 70.931 12.18H72.931C72.931 11.3165 73.116 11.0336 73.1798 10.973L71.8023 9.523ZM70.931 12.18V13.72H72.931V12.18H70.931ZM71.931 14.72H75.431V12.72H71.931V14.72ZM75.431 14.72C75.4807 14.72 75.4994 14.7277 75.4994 14.7277C75.4999 14.728 75.5 14.728 75.4998 14.7279C75.4997 14.7278 75.4996 14.7278 75.4997 14.7279C75.4998 14.7279 75.5005 14.7284 75.5017 14.7294C75.503 14.7304 75.5051 14.7322 75.5079 14.7351L76.9221 13.3209C76.5109 12.9097 75.9865 12.72 75.431 12.72V14.72ZM75.5079 14.7351C75.5108 14.738 75.5126 14.7401 75.5136 14.7413C75.5146 14.7426 75.5151 14.7432 75.5152 14.7433C75.5152 14.7435 75.5152 14.7434 75.5151 14.7432C75.515 14.743 75.5151 14.7431 75.5153 14.7437C75.5153 14.7437 75.523 14.7623 75.523 14.812H77.523C77.523 14.2565 77.3333 13.7321 76.9221 13.3209L75.5079 14.7351ZM75.523 14.812C75.523 14.8557 75.5174 14.8771 75.4779 14.9203L76.9522 16.2717C77.3233 15.8669 77.523 15.3656 77.523 14.812H75.523ZM75.5079 14.8889C75.5051 14.8918 75.503 14.8936 75.5017 14.8946C75.5005 14.8956 75.4998 14.8961 75.4997 14.8961C75.4996 14.8962 75.4997 14.8962 75.4998 14.8961C75.5 14.896 75.4999 14.896 75.4994 14.8962C75.4994 14.8963 75.4807 14.904 75.431 14.904V16.904C75.9865 16.904 76.5109 16.7143 76.9221 16.3031L75.5079 14.8889ZM75.431 14.904H71.931V16.904H75.431V14.904ZM70.931 15.904V26.88H72.931V15.904H70.931ZM70.931 26.88C70.931 26.9549 70.9174 26.9886 70.8586 27.0432L72.2195 28.5088C72.6833 28.0781 72.931 27.5145 72.931 26.88H70.931ZM70.8319 27.0689C70.7837 27.1171 70.7424 27.14 70.643 27.14V29.14C71.253 29.14 71.809 28.9202 72.2461 28.4831L70.8319 27.0689ZM80.977 15.904H81.977V14.904H80.977V15.904ZM78.597 15.764L77.8288 16.4042L77.887 16.474L77.9568 16.5322L78.597 15.764ZM78.709 14.896L79.3229 15.6854L79.3677 15.6506L79.4082 15.6109L78.709 14.896ZM82.517 11.172L83.2162 11.887L83.2241 11.8791L82.517 11.172ZM83.357 11.088L82.5888 11.7282L82.6178 11.763L82.6499 11.7951L83.357 11.088ZM83.525 13.72H82.525V14.72H83.525V13.72ZM87.473 14.028L86.7659 14.7351L86.7659 14.7351L87.473 14.028ZM87.473 15.596L88.1801 16.3031L88.1955 16.2877L88.2102 16.2717L87.473 15.596ZM83.525 15.904V14.904H82.525V15.904H83.525ZM84.029 25.76L83.5075 26.6133L83.5349 26.63L83.5633 26.6449L84.029 25.76ZM86.465 25.872L86.2225 24.9019L86.1999 24.9075L86.1777 24.9142L86.465 25.872ZM86.689 25.816L86.4929 24.8354L86.4696 24.8401L86.4465 24.8459L86.689 25.816ZM87.725 26.096L87.0179 26.8031L87.0347 26.8199L87.0523 26.8359L87.725 26.096ZM87.389 27.776L87.8081 28.684L87.8301 28.6738L87.8516 28.6626L87.389 27.776ZM85.065 27.28C83.833 27.28 83.0956 26.9994 82.6696 26.6142C82.2628 26.2464 81.977 25.6344 81.977 24.584H79.977C79.977 25.9976 80.3725 27.2336 81.3284 28.0978C82.265 28.9446 83.5717 29.28 85.065 29.28V27.28ZM81.977 24.584V15.904H79.977V24.584H81.977ZM80.977 14.904H78.989V16.904H80.977V14.904ZM78.989 14.904C79.0202 14.904 79.0648 14.9092 79.1153 14.9273C79.1662 14.9454 79.2075 14.9711 79.2372 14.9958L77.9568 16.5322C78.2532 16.7792 78.6119 16.904 78.989 16.904V14.904ZM79.3652 15.1238C79.3899 15.1535 79.4156 15.1948 79.4337 15.2457C79.4518 15.2962 79.457 15.3408 79.457 15.372H77.457C77.457 15.7491 77.5818 16.1078 77.8288 16.4042L79.3652 15.1238ZM79.457 15.372C79.457 15.4351 79.4412 15.5102 79.4038 15.5809C79.3685 15.6476 79.3302 15.6797 79.3229 15.6854L78.0951 14.1066C77.7222 14.3966 77.457 14.8308 77.457 15.372H79.457ZM79.4082 15.6109L83.2162 11.8869L81.8178 10.4571L78.0098 14.1811L79.4082 15.6109ZM83.2241 11.8791C83.259 11.8443 83.2619 11.8499 83.2299 11.8668C83.194 11.8858 83.1113 11.92 82.993 11.92V9.92C82.4581 9.92 82.0585 10.2163 81.8099 10.4649L83.2241 11.8791ZM82.993 11.92C82.9401 11.92 82.8623 11.9094 82.7769 11.87C82.6909 11.8302 82.6284 11.7757 82.5888 11.7282L84.1252 10.4478C83.8366 10.1015 83.4308 9.92 82.993 9.92V11.92ZM82.6499 11.7951C82.6262 11.7714 82.5914 11.7281 82.5639 11.6639C82.5358 11.5985 82.525 11.5338 82.525 11.48H84.525C84.525 11.0481 84.351 10.6678 84.0641 10.3809L82.6499 11.7951ZM82.525 11.48V13.72H84.525V11.48H82.525ZM83.525 14.72H86.689V12.72H83.525V14.72ZM86.689 14.72C86.7387 14.72 86.7573 14.7277 86.7573 14.7277C86.7579 14.728 86.758 14.728 86.7578 14.7279C86.7576 14.7278 86.7575 14.7278 86.7577 14.7279C86.7578 14.7279 86.7584 14.7284 86.7597 14.7294C86.7609 14.7304 86.763 14.7322 86.7659 14.7351L88.1801 13.3209C87.7689 12.9097 87.2445 12.72 86.689 12.72V14.72ZM86.7659 14.7351C86.7688 14.738 86.7706 14.7401 86.7716 14.7413C86.7726 14.7426 86.7731 14.7432 86.7731 14.7433C86.7732 14.7435 86.7732 14.7434 86.7731 14.7432C86.773 14.743 86.773 14.7431 86.7732 14.7437C86.7733 14.7437 86.781 14.7623 86.781 14.812H88.781C88.781 14.2565 88.5913 13.7321 88.1801 13.3209L86.7659 14.7351ZM86.781 14.812C86.781 14.8557 86.7754 14.8771 86.7358 14.9203L88.2102 16.2717C88.5813 15.8669 88.781 15.3656 88.781 14.812H86.781ZM86.7659 14.8889C86.763 14.8918 86.7609 14.8936 86.7597 14.8946C86.7584 14.8956 86.7578 14.8961 86.7577 14.8961C86.7575 14.8962 86.7576 14.8962 86.7578 14.8961C86.758 14.896 86.7579 14.896 86.7573 14.8962C86.7573 14.8963 86.7387 14.904 86.689 14.904V16.904C87.2445 16.904 87.7689 16.7143 88.1801 16.3031L86.7659 14.8889ZM86.689 14.904H83.525V16.904H86.689V14.904ZM82.525 15.904V24.36H84.525V15.904H82.525ZM82.525 24.36C82.525 25.1471 82.6911 26.1144 83.5075 26.6133L84.5504 24.9067C84.6227 24.9509 84.6192 24.9931 84.5919 24.9173C84.5607 24.8307 84.525 24.6575 84.525 24.36H82.525ZM83.5633 26.6449C84.0985 26.9266 84.7078 27.04 85.345 27.04V25.04C84.9369 25.04 84.6688 24.9667 84.4947 24.8751L83.5633 26.6449ZM85.345 27.04C85.8199 27.04 86.2899 26.9686 86.7523 26.8298L86.1777 24.9142C85.8934 24.9994 85.6168 25.04 85.345 25.04V27.04ZM86.7075 26.8421C86.7822 26.8235 86.8569 26.8048 86.9315 26.7861L86.4465 24.8459C86.3718 24.8645 86.2971 24.8832 86.2225 24.9019L86.7075 26.8421ZM86.8851 26.7966C86.895 26.7946 86.9377 26.788 87.025 26.788V24.788C86.851 24.788 86.6696 24.8001 86.4929 24.8354L86.8851 26.7966ZM87.025 26.788C87.0244 26.788 87.0198 26.7879 87.0125 26.7864C87.0052 26.7849 86.9984 26.7826 86.9933 26.7803C86.9882 26.7781 86.9875 26.7771 86.9911 26.7797C86.9949 26.7823 87.0041 26.7893 87.0179 26.8031L88.4321 25.3889C88.0621 25.0189 87.5822 24.788 87.025 24.788V26.788ZM87.0523 26.8359C87.0574 26.8406 87.0568 26.8409 87.0533 26.8361C87.0497 26.8312 87.045 26.8235 87.0407 26.8137C87.0364 26.804 87.0342 26.7958 87.0332 26.7909C87.0322 26.7861 87.033 26.7873 87.033 26.796H89.033C89.033 26.2372 88.8136 25.7342 88.3977 25.3561L87.0523 26.8359ZM87.033 26.796C87.033 26.8194 87.0302 26.8278 87.0308 26.8256C87.0316 26.8227 87.0338 26.8177 87.0363 26.8138C87.0424 26.8045 87.0257 26.8376 86.9264 26.8894L87.8516 28.6626C88.1817 28.4904 88.4869 28.2481 88.7077 27.9122C88.9327 27.5698 89.033 27.1859 89.033 26.796H87.033ZM86.9699 26.868C86.3766 27.1419 85.7453 27.28 85.065 27.28V29.28C86.0274 29.28 86.9454 29.0821 87.8081 28.684L86.9699 26.868ZM92.5924 27.776L93.2995 27.0689L92.5924 27.776ZM92.5924 7.812L93.2995 8.51911L93.3126 8.50602L93.3252 8.49245L92.5924 7.812ZM94.4124 7.784L95.1195 7.07689V7.07689L94.4124 7.784ZM94.3844 27.776L93.704 27.0432L93.6904 27.0558L93.6773 27.0689L94.3844 27.776ZM93.4884 27.14C93.389 27.14 93.3477 27.1171 93.2995 27.0689L91.8853 28.4831C92.3224 28.9202 92.8784 29.14 93.4884 29.14V27.14ZM93.2995 27.0689C93.2513 27.0207 93.2284 26.9794 93.2284 26.88H91.2284C91.2284 27.49 91.4482 28.046 91.8853 28.4831L93.2995 27.0689ZM93.2284 26.88V8.708H91.2284V26.88H93.2284ZM93.2284 8.708C93.2284 8.60863 93.2513 8.56734 93.2995 8.51911L91.8853 7.10489C91.4482 7.542 91.2284 8.09803 91.2284 8.708H93.2284ZM93.3252 8.49245C93.3798 8.4336 93.4136 8.42 93.4884 8.42V6.42C92.8539 6.42 92.2903 6.66773 91.8596 7.13155L93.3252 8.49245ZM93.4884 8.42C93.6222 8.42 93.6676 8.45339 93.7053 8.49111L95.1195 7.07689C94.6719 6.62928 94.1013 6.42 93.4884 6.42V8.42ZM93.7053 8.4911C93.743 8.52882 93.7764 8.5742 93.7764 8.708H95.7764C95.7764 8.09513 95.5671 7.52451 95.1195 7.07689L93.7053 8.4911ZM93.7764 8.708V26.88H95.7764V8.708H93.7764ZM93.7764 26.88C93.7764 26.9549 93.7628 26.9886 93.704 27.0432L95.0649 28.5088C95.5287 28.0781 95.7764 27.5145 95.7764 26.88H93.7764ZM93.6773 27.0689C93.6291 27.1171 93.5878 27.14 93.4884 27.14V29.14C94.0984 29.14 94.6544 28.9202 95.0915 28.4831L93.6773 27.0689ZM101.945 27.776L101.508 28.6753L101.517 28.6797L101.945 27.776ZM100.293 26.32L99.4464 26.8522L99.4535 26.8633L100.293 26.32ZM101.301 20.776L100.703 19.9743L100.697 19.9793L101.301 20.776ZM109.505 19.544V20.544H110.505V19.544H109.505ZM108.581 16.66L107.91 17.401L107.915 17.4061L107.921 17.4112L108.581 16.66ZM103.849 16.016L103.653 15.0354L103.646 15.0367L103.849 16.016ZM102.029 16.52L102.272 17.4901L102.309 17.4808L102.345 17.4687L102.029 16.52ZM100.937 16.268L101.644 15.5609V15.5609L100.937 16.268ZM101.357 14.448L101.747 15.369L101.747 15.3688L101.357 14.448ZM109.449 14.224L108.937 15.0831L108.945 15.0878L109.449 14.224ZM111.409 16.268L110.511 16.7072L110.517 16.7193L110.523 16.7313L111.409 16.268ZM111.661 27.776L110.981 27.0432L110.967 27.0558L110.954 27.0689L111.661 27.776ZM109.869 27.776L110.576 27.0689L109.869 27.776ZM109.505 26.152H110.505V23.6915L108.789 25.4544L109.505 26.152ZM107.573 25.452L108.029 26.342L108.037 26.3377L108.046 26.3332L107.573 25.452ZM109.505 23.94L110.258 24.5985L110.505 24.3157V23.94H109.505ZM109.505 21.588H110.505V20.588H109.505V21.588ZM102.897 25.424L102.221 26.1612L102.229 26.168L102.236 26.1747L102.897 25.424ZM104.241 27.28C103.561 27.28 102.942 27.1419 102.373 26.8723L101.517 28.6797C102.366 29.0821 103.279 29.28 104.241 29.28V27.28ZM102.383 26.8768C101.853 26.6192 101.443 26.2557 101.133 25.7767L99.4535 26.8633C99.9649 27.6536 100.656 28.2608 101.508 28.6752L102.383 26.8768ZM101.14 25.7878C100.838 25.308 100.677 24.749 100.677 24.08H98.6771C98.6771 25.091 98.9267 26.0254 99.4464 26.8522L101.14 25.7878ZM100.677 24.08C100.677 23.0054 101.077 22.2013 101.905 21.5727L100.697 19.9793C99.36 20.9933 98.6771 22.3919 98.6771 24.08H100.677ZM101.899 21.5776C102.757 20.9376 104.115 20.544 106.117 20.544V18.544C103.901 18.544 102.048 18.9717 100.703 19.9744L101.899 21.5776ZM106.117 20.544H109.505V18.544H106.117V20.544ZM110.505 19.544V19.32H108.505V19.544H110.505ZM110.505 19.32C110.505 17.946 110.163 16.7187 109.241 15.9088L107.921 17.4112C108.231 17.684 108.505 18.23 108.505 19.32H110.505ZM109.253 15.919C108.388 15.1359 107.148 14.848 105.753 14.848V16.848C106.934 16.848 107.579 17.1014 107.91 17.401L109.253 15.919ZM105.753 14.848C104.993 14.848 104.291 14.9078 103.653 15.0354L104.045 16.9966C104.527 16.9002 105.094 16.848 105.753 16.848V14.848ZM103.646 15.0367C103.058 15.1585 102.412 15.3382 101.713 15.5713L102.345 17.4687C102.99 17.2538 103.558 17.0975 104.052 16.9953L103.646 15.0367ZM101.787 15.5499C101.735 15.5628 101.698 15.57 101.674 15.5736C101.649 15.5775 101.648 15.576 101.665 15.576V17.576C101.876 17.576 102.087 17.5363 102.272 17.4901L101.787 15.5499ZM101.665 15.576C101.656 15.576 101.653 15.5752 101.655 15.5755C101.656 15.5758 101.659 15.5766 101.663 15.578C101.666 15.5794 101.667 15.5802 101.665 15.5787C101.662 15.5771 101.655 15.572 101.644 15.5609L100.23 16.9751C100.615 17.3602 101.109 17.576 101.665 17.576V15.576ZM101.644 15.5609C101.636 15.5526 101.632 15.5477 101.632 15.5466C101.631 15.5457 101.632 15.5463 101.632 15.5477C101.633 15.5491 101.632 15.5483 101.631 15.544C101.631 15.5394 101.629 15.5292 101.629 15.512H99.6291C99.6291 16.0674 99.8312 16.5763 100.23 16.9751L101.644 15.5609ZM101.629 15.512C101.629 15.4662 101.635 15.4422 101.637 15.434C101.639 15.427 101.639 15.4285 101.636 15.4327C101.627 15.4458 101.64 15.414 101.747 15.369L100.967 13.527C100.588 13.6874 100.237 13.9355 99.9858 14.3033C99.732 14.6742 99.6291 15.0942 99.6291 15.512H101.629ZM101.747 15.3688C103.216 14.7465 104.699 14.44 106.201 14.44V12.44C104.418 12.44 102.671 12.8055 100.967 13.5272L101.747 15.3688ZM106.201 14.44C107.355 14.44 108.25 14.6739 108.937 15.0831L109.961 13.3649C108.893 12.7288 107.623 12.44 106.201 12.44V14.44ZM108.945 15.0878C109.69 15.5223 110.196 16.0637 110.511 16.7072L112.307 15.8288C111.801 14.7923 111 13.9711 109.953 13.3602L108.945 15.0878ZM110.523 16.7313C110.874 17.4028 111.053 18.1388 111.053 18.956H113.053C113.053 17.8319 112.803 16.7759 112.295 15.8047L110.523 16.7313ZM111.053 18.956V26.88H113.053V18.956H111.053ZM111.053 26.88C111.053 26.9549 111.039 26.9886 110.981 27.0432L112.342 28.5088C112.805 28.0781 113.053 27.5145 113.053 26.88H111.053ZM110.954 27.0689C110.906 27.1171 110.864 27.14 110.765 27.14V29.14C111.375 29.14 111.931 28.9202 112.368 28.4831L110.954 27.0689ZM110.765 27.14C110.666 27.14 110.624 27.1171 110.576 27.0689L109.162 28.4831C109.599 28.9202 110.155 29.14 110.765 29.14V27.14ZM110.576 27.0689C110.528 27.0207 110.505 26.9794 110.505 26.88H108.505C108.505 27.49 108.725 28.046 109.162 28.4831L110.576 27.0689ZM110.505 26.88V26.152H108.505V26.88H110.505ZM108.789 25.4544C107.611 26.6642 106.122 27.28 104.241 27.28V29.28C106.617 29.28 108.637 28.4771 110.222 26.8496L108.789 25.4544ZM105.193 27.04C106.18 27.04 107.129 26.8028 108.029 26.342L107.117 24.562C106.486 24.8852 105.848 25.04 105.193 25.04V27.04ZM108.046 26.3332C108.907 25.871 109.649 25.2944 110.258 24.5985L108.752 23.2815C108.316 23.7803 107.77 24.2116 107.1 24.5708L108.046 26.3332ZM110.505 23.94V21.588H108.505V23.94H110.505ZM109.505 20.588H106.453V22.588H109.505V20.588ZM106.453 20.588C104.989 20.588 103.738 20.774 102.818 21.2549C102.344 21.5031 101.934 21.8425 101.646 22.2949C101.355 22.7514 101.225 23.2654 101.225 23.8H103.225C103.225 23.5973 103.271 23.4661 103.333 23.3696C103.397 23.269 103.515 23.1476 103.746 23.0271C104.236 22.7707 105.098 22.588 106.453 22.588V20.588ZM101.225 23.8C101.225 24.7193 101.544 25.5399 102.221 26.1612L103.573 24.6868C103.355 24.4868 103.225 24.2247 103.225 23.8H101.225ZM102.236 26.1747C102.977 26.8267 104.045 27.04 105.193 27.04V25.04C104.213 25.04 103.75 24.8427 103.558 24.6733L102.236 26.1747ZM118.088 27.776L118.795 27.0689L118.088 27.776ZM118.088 13.972L118.795 14.6791L118.808 14.666L118.821 14.6524L118.088 13.972ZM119.88 13.972L119.147 14.6524L119.172 14.6796L119.199 14.7048L119.88 13.972ZM120.272 16.016H119.272V18.6118L121.013 16.6869L120.272 16.016ZM122.568 14.14L123.062 15.0095L122.568 14.14ZM128.14 14.168L127.595 15.0065L127.604 15.0125L128.14 14.168ZM129.876 16.156L128.97 16.5789L128.973 16.5871L128.977 16.5952L129.876 16.156ZM130.1 27.776L129.419 27.0432L129.406 27.0558L129.393 27.0689L130.1 27.776ZM128.308 27.776L127.601 28.4831H127.601L128.308 27.776ZM122.344 16.52L121.799 15.6815L121.789 15.6879L122.344 16.52ZM120.272 18.48L119.489 17.8575L119.272 18.1308V18.48H120.272ZM119.88 27.776L119.199 27.0432L119.186 27.0558L119.173 27.0689L119.88 27.776ZM118.984 27.14C118.884 27.14 118.843 27.1171 118.795 27.0689L117.381 28.4831C117.818 28.9202 118.374 29.14 118.984 29.14V27.14ZM118.795 27.0689C118.747 27.0207 118.724 26.9794 118.724 26.88H116.724C116.724 27.49 116.944 28.046 117.381 28.4831L118.795 27.0689ZM118.724 26.88V14.868H116.724V26.88H118.724ZM118.724 14.868C118.724 14.7686 118.747 14.7273 118.795 14.6791L117.381 13.2649C116.944 13.702 116.724 14.258 116.724 14.868H118.724ZM118.821 14.6524C118.875 14.5936 118.909 14.58 118.984 14.58V12.58C118.349 12.58 117.786 12.8277 117.355 13.2915L118.821 14.6524ZM118.984 14.58C119.059 14.58 119.092 14.5936 119.147 14.6524L120.613 13.2915C120.182 12.8277 119.618 12.58 118.984 12.58V14.58ZM119.199 14.7048C119.258 14.7594 119.272 14.7931 119.272 14.868H121.272C121.272 14.2335 121.024 13.6699 120.56 13.2392L119.199 14.7048ZM119.272 14.868V16.016H121.272V14.868H119.272ZM121.013 16.6869C121.66 15.9725 122.343 15.4177 123.062 15.0095L122.074 13.2705C121.15 13.7957 120.303 14.4915 119.53 15.3451L121.013 16.6869ZM123.062 15.0095C123.707 14.643 124.501 14.44 125.48 14.44V12.44C124.219 12.44 123.071 12.7037 122.074 13.2705L123.062 15.0095ZM125.48 14.44C126.343 14.44 127.034 14.6419 127.595 15.0064L128.685 13.3296C127.752 12.7234 126.67 12.44 125.48 12.44V14.44ZM127.604 15.0125C128.204 15.3931 128.656 15.9077 128.97 16.5789L130.782 15.7331C130.311 14.7243 129.606 13.9135 128.675 13.3235L127.604 15.0125ZM128.977 16.5952C129.316 17.288 129.492 18.0601 129.492 18.928H131.492C131.492 17.7799 131.257 16.704 130.774 15.7168L128.977 16.5952ZM129.492 18.928V26.88H131.492V18.928H129.492ZM129.492 26.88C129.492 26.9549 129.478 26.9886 129.419 27.0432L130.78 28.5088C131.244 28.0781 131.492 27.5145 131.492 26.88H129.492ZM129.393 27.0689C129.344 27.1171 129.303 27.14 129.204 27.14V29.14C129.814 29.14 130.37 28.9202 130.807 28.4831L129.393 27.0689ZM129.204 27.14C129.104 27.14 129.063 27.1171 129.015 27.0689L127.601 28.4831C128.038 28.9202 128.594 29.14 129.204 29.14V27.14ZM129.015 27.0689C128.967 27.0207 128.944 26.9794 128.944 26.88H126.944C126.944 27.49 127.164 28.046 127.601 28.4831L129.015 27.0689ZM128.944 26.88V19.208H126.944V26.88H128.944ZM128.944 19.208C128.944 17.9393 128.66 16.801 127.916 15.9764C127.155 15.132 126.073 14.792 124.864 14.792V16.792C125.708 16.792 126.166 17.0213 126.431 17.3156C126.714 17.6296 126.944 18.1994 126.944 19.208H128.944ZM124.864 14.792C123.747 14.792 122.716 15.0856 121.799 15.6816L122.889 17.3584C123.465 16.9838 124.114 16.792 124.864 16.792V14.792ZM121.789 15.6879C120.959 16.241 120.195 16.9706 119.489 17.8575L121.054 19.1025C121.656 18.3468 122.272 17.7696 122.898 17.352L121.789 15.6879ZM119.272 18.48V26.88H121.272V18.48H119.272ZM119.272 26.88C119.272 26.9549 119.258 26.9886 119.199 27.0432L120.56 28.5088C121.024 28.0781 121.272 27.5145 121.272 26.88H119.272ZM119.173 27.0689C119.124 27.1171 119.083 27.14 118.984 27.14V29.14C119.594 29.14 120.15 28.9202 120.587 28.4831L119.173 27.0689ZM138.79 27.412L138.287 28.2763L138.297 28.2817L138.306 28.2869L138.79 27.412ZM136.27 24.836L135.397 25.3229L135.402 25.3314L135.406 25.3399L136.27 24.836ZM136.27 16.912L135.403 16.4143L135.4 16.419L136.27 16.912ZM138.79 14.336L139.281 15.2072L139.286 15.2042L138.79 14.336ZM146.882 15.568L146.161 16.2607L147.882 18.0527V15.568H146.882ZM147.246 7.784L146.566 7.0512L146.552 7.0638L146.539 7.07689L147.246 7.784ZM149.066 7.812L148.333 8.49245L148.346 8.50602L148.359 8.51911L149.066 7.812ZM149.066 27.776L149.773 28.4831L149.066 27.776ZM147.246 27.776L146.539 28.4831L146.552 28.4962L146.566 28.5088L147.246 27.776ZM146.882 26.152H147.882V23.6673L146.161 25.4593L146.882 26.152ZM144.866 25.34L145.313 26.2345L145.322 26.23L144.866 25.34ZM146.882 23.8L147.621 24.4738L147.882 24.1874V23.8H146.882ZM146.882 17.92H147.882V17.5326L147.621 17.2462L146.882 17.92ZM144.866 16.408L144.401 17.2934L144.414 17.3003L144.428 17.3068L144.866 16.408ZM139.126 17.136L139.849 17.8276L139.126 17.136ZM142.094 27.28C141.112 27.28 140.177 27.0365 139.275 26.5371L138.306 28.2869C139.494 28.9449 140.762 29.28 142.094 29.28V27.28ZM139.293 26.5477C138.429 26.0451 137.708 25.3169 137.134 24.3321L135.406 25.3399C136.139 26.5951 137.098 27.5842 138.287 28.2763L139.293 26.5477ZM137.144 24.3491C136.604 23.3816 136.318 22.2291 136.318 20.86H134.318C134.318 22.5149 134.667 24.0131 135.397 25.3229L137.144 24.3491ZM136.318 20.86C136.318 19.4905 136.605 18.3503 137.14 17.405L135.4 16.419C134.667 17.7137 134.318 19.2055 134.318 20.86H136.318ZM137.138 17.4097C137.712 16.4088 138.429 15.6877 139.281 15.2072L138.299 13.4648C137.098 14.1417 136.135 15.1378 135.403 16.4143L137.138 17.4097ZM139.286 15.2042C140.187 14.6896 141.118 14.44 142.094 14.44V12.44C140.756 12.44 139.484 12.7877 138.294 13.4678L139.286 15.2042ZM142.094 14.44C143.629 14.44 144.971 15.0219 146.161 16.2607L147.603 14.8753C146.068 13.2767 144.218 12.44 142.094 12.44V14.44ZM147.882 15.568V8.708H145.882V15.568H147.882ZM147.882 8.708C147.882 8.5742 147.916 8.52882 147.953 8.49111L146.539 7.07689C146.091 7.52451 145.882 8.09513 145.882 8.708H147.882ZM147.927 8.51679C148.004 8.44482 148.07 8.42 148.17 8.42V6.42C147.562 6.42 147.011 6.63784 146.566 7.0512L147.927 8.51679ZM148.17 8.42C148.245 8.42 148.279 8.4336 148.333 8.49245L149.799 7.13155C149.368 6.66773 148.805 6.42 148.17 6.42V8.42ZM148.359 8.51911C148.407 8.56734 148.43 8.60863 148.43 8.708H150.43C150.43 8.09803 150.21 7.54199 149.773 7.10489L148.359 8.51911ZM148.43 8.708V26.88H150.43V8.708H148.43ZM148.43 26.88C148.43 26.9794 148.407 27.0207 148.359 27.0689L149.773 28.4831C150.21 28.046 150.43 27.49 150.43 26.88H148.43ZM148.359 27.0689C148.311 27.1171 148.27 27.14 148.17 27.14V29.14C148.78 29.14 149.336 28.9202 149.773 28.4831L148.359 27.0689ZM148.17 27.14C148.07 27.14 148.004 27.1152 147.927 27.0432L146.566 28.5088C147.011 28.9222 147.562 29.14 148.17 29.14V27.14ZM147.953 27.0689C147.905 27.0207 147.882 26.9794 147.882 26.88H145.882C145.882 27.49 146.102 28.046 146.539 28.4831L147.953 27.0689ZM147.882 26.88V26.152H145.882V26.88H147.882ZM146.161 25.4593C144.971 26.6981 143.629 27.28 142.094 27.28V29.28C144.218 29.28 146.068 28.4433 147.603 26.8447L146.161 25.4593ZM142.458 26.9C143.468 26.9 144.424 26.6792 145.313 26.2344L144.419 24.4456C143.815 24.7475 143.166 24.9 142.458 24.9V26.9ZM145.322 26.23C146.194 25.7835 146.962 25.197 147.621 24.4738L146.143 23.1262C145.645 23.6723 145.069 24.1125 144.41 24.45L145.322 26.23ZM147.882 23.8V17.92H145.882V23.8H147.882ZM147.621 17.2462C146.958 16.5191 146.184 15.9384 145.305 15.5092L144.428 17.3068C145.079 17.6243 145.649 18.0516 146.143 18.5938L147.621 17.2462ZM145.331 15.5226C144.438 15.0539 143.476 14.82 142.458 14.82V16.82C143.158 16.82 143.801 16.9781 144.401 17.2934L145.331 15.5226ZM142.458 14.82C140.845 14.82 139.459 15.3423 138.404 16.4444L139.849 17.8276C140.473 17.175 141.309 16.82 142.458 16.82V14.82ZM138.404 16.4444C137.334 17.5616 136.866 19.0823 136.866 20.86H138.866C138.866 19.427 139.238 18.4651 139.849 17.8276L138.404 16.4444ZM136.866 20.86C136.866 22.6377 137.334 24.1584 138.404 25.2756L139.849 23.8924C139.238 23.2549 138.866 22.293 138.866 20.86H136.866ZM138.404 25.2756C139.459 26.3777 140.845 26.9 142.458 26.9V24.9C141.309 24.9 140.473 24.545 139.849 23.8924L138.404 25.2756ZM155.446 10.388L154.739 11.0951L154.739 11.0951L155.446 10.388ZM157.63 10.388L158.337 11.0951L158.337 11.0951L157.63 10.388ZM155.614 27.776L156.321 27.0689L155.614 27.776ZM155.614 13.972L156.321 14.6791L156.334 14.666L156.347 14.6524L155.614 13.972ZM157.434 13.944L158.141 13.2369L157.434 13.944ZM157.406 27.776L156.726 27.0432L156.712 27.0558L156.699 27.0689L157.406 27.776ZM156.454 9.808C156.331 9.808 156.248 9.7755 156.153 9.68089L154.739 11.0951C155.205 11.5605 155.794 11.808 156.454 11.808V9.808ZM156.153 9.68089C156.059 9.58629 156.026 9.50377 156.026 9.38H154.026C154.026 10.0402 154.274 10.6297 154.739 11.0951L156.153 9.68089ZM156.026 9.38V9.268H154.026V9.38H156.026ZM156.026 9.268C156.026 9.14423 156.059 9.06171 156.153 8.96711L154.739 7.55289C154.274 8.01829 154.026 8.60777 154.026 9.268H156.026ZM156.153 8.96711C156.248 8.8725 156.331 8.84 156.454 8.84V6.84C155.794 6.84 155.205 7.0875 154.739 7.55289L156.153 8.96711ZM156.454 8.84H156.622V6.84H156.454V8.84ZM156.622 8.84C156.746 8.84 156.829 8.8725 156.923 8.96711L158.337 7.55289C157.872 7.0875 157.283 6.84 156.622 6.84V8.84ZM156.923 8.96711C157.018 9.06171 157.05 9.14423 157.05 9.268H159.05C159.05 8.60777 158.803 8.01829 158.337 7.55289L156.923 8.96711ZM157.05 9.268V9.38H159.05V9.268H157.05ZM157.05 9.38C157.05 9.50377 157.018 9.58629 156.923 9.68089L158.337 11.0951C158.803 10.6297 159.05 10.0402 159.05 9.38H157.05ZM156.923 9.68089C156.829 9.7755 156.746 9.808 156.622 9.808V11.808C157.283 11.808 157.872 11.5605 158.337 11.0951L156.923 9.68089ZM156.622 9.808H156.454V11.808H156.622V9.808ZM156.51 27.14C156.411 27.14 156.37 27.1171 156.321 27.0689L154.907 28.4831C155.344 28.9202 155.9 29.14 156.51 29.14V27.14ZM156.321 27.0689C156.273 27.0207 156.25 26.9794 156.25 26.88H154.25C154.25 27.49 154.47 28.046 154.907 28.4831L156.321 27.0689ZM156.25 26.88V14.868H154.25V26.88H156.25ZM156.25 14.868C156.25 14.7686 156.273 14.7273 156.321 14.6791L154.907 13.2649C154.47 13.702 154.25 14.258 154.25 14.868H156.25ZM156.347 14.6524C156.402 14.5936 156.435 14.58 156.51 14.58V12.58C155.876 12.58 155.312 12.8277 154.881 13.2915L156.347 14.6524ZM156.51 14.58C156.644 14.58 156.689 14.6134 156.727 14.6511L158.141 13.2369C157.694 12.7893 157.123 12.58 156.51 12.58V14.58ZM156.727 14.6511C156.765 14.6888 156.798 14.7342 156.798 14.868H158.798C158.798 14.2551 158.589 13.6845 158.141 13.2369L156.727 14.6511ZM156.798 14.868V26.88H158.798V14.868H156.798ZM156.798 26.88C156.798 26.9549 156.785 26.9886 156.726 27.0432L158.087 28.5088C158.551 28.0781 158.798 27.5145 158.798 26.88H156.798ZM156.699 27.0689C156.651 27.1171 156.61 27.14 156.51 27.14V29.14C157.12 29.14 157.676 28.9202 158.113 28.4831L156.699 27.0689ZM163.987 27.776L164.694 27.0689L163.987 27.776ZM163.987 13.972L164.694 14.6791L164.707 14.666L164.72 14.6524L163.987 13.972ZM165.779 13.972L165.046 14.6524L165.071 14.6796L165.098 14.7048L165.779 13.972ZM166.171 16.016H165.171V18.6118L166.912 16.6869L166.171 16.016ZM168.467 14.14L168.961 15.0095L168.467 14.14ZM174.039 14.168L173.494 15.0065L173.503 15.0125L174.039 14.168ZM175.775 16.156L174.869 16.5789L174.873 16.5871L174.877 16.5952L175.775 16.156ZM175.999 27.776L175.318 27.0432L175.305 27.0558L175.292 27.0689L175.999 27.776ZM174.207 27.776L173.5 28.4831H173.5L174.207 27.776ZM168.243 16.52L167.698 15.6815L167.688 15.6879L168.243 16.52ZM166.171 18.48L165.388 17.8575L165.171 18.1308V18.48H166.171ZM165.779 27.776L165.098 27.0432L165.085 27.0558L165.072 27.0689L165.779 27.776ZM164.883 27.14C164.784 27.14 164.742 27.1171 164.694 27.0689L163.28 28.4831C163.717 28.9202 164.273 29.14 164.883 29.14V27.14ZM164.694 27.0689C164.646 27.0207 164.623 26.9794 164.623 26.88H162.623C162.623 27.49 162.843 28.046 163.28 28.4831L164.694 27.0689ZM164.623 26.88V14.868H162.623V26.88H164.623ZM164.623 14.868C164.623 14.7686 164.646 14.7273 164.694 14.6791L163.28 13.2649C162.843 13.702 162.623 14.258 162.623 14.868H164.623ZM164.72 14.6524C164.774 14.5936 164.808 14.58 164.883 14.58V12.58C164.248 12.58 163.685 12.8277 163.254 13.2915L164.72 14.6524ZM164.883 14.58C164.958 14.58 164.991 14.5936 165.046 14.6524L166.512 13.2915C166.081 12.8277 165.517 12.58 164.883 12.58V14.58ZM165.098 14.7048C165.157 14.7594 165.171 14.7931 165.171 14.868H167.171C167.171 14.2335 166.923 13.6699 166.459 13.2392L165.098 14.7048ZM165.171 14.868V16.016H167.171V14.868H165.171ZM166.912 16.6869C167.559 15.9725 168.242 15.4177 168.961 15.0095L167.973 13.2705C167.049 13.7957 166.202 14.4915 165.429 15.3451L166.912 16.6869ZM168.961 15.0095C169.606 14.643 170.4 14.44 171.379 14.44V12.44C170.118 12.44 168.971 12.7037 167.973 13.2705L168.961 15.0095ZM171.379 14.44C172.242 14.44 172.933 14.6419 173.494 15.0064L174.584 13.3296C173.651 12.7234 172.569 12.44 171.379 12.44V14.44ZM173.503 15.0125C174.104 15.3931 174.556 15.9077 174.869 16.5789L176.681 15.7331C176.21 14.7243 175.505 13.9135 174.574 13.3235L173.503 15.0125ZM174.877 16.5952C175.215 17.288 175.391 18.0601 175.391 18.928H177.391C177.391 17.7799 177.156 16.704 176.673 15.7168L174.877 16.5952ZM175.391 18.928V26.88H177.391V18.928H175.391ZM175.391 26.88C175.391 26.9549 175.377 26.9886 175.318 27.0432L176.679 28.5088C177.143 28.0781 177.391 27.5145 177.391 26.88H175.391ZM175.292 27.0689C175.244 27.1171 175.202 27.14 175.103 27.14V29.14C175.713 29.14 176.269 28.9202 176.706 28.4831L175.292 27.0689ZM175.103 27.14C175.004 27.14 174.962 27.1171 174.914 27.0689L173.5 28.4831C173.937 28.9202 174.493 29.14 175.103 29.14V27.14ZM174.914 27.0689C174.866 27.0207 174.843 26.9794 174.843 26.88H172.843C172.843 27.49 173.063 28.046 173.5 28.4831L174.914 27.0689ZM174.843 26.88V19.208H172.843V26.88H174.843ZM174.843 19.208C174.843 17.9393 174.559 16.801 173.816 15.9764C173.054 15.132 171.972 14.792 170.763 14.792V16.792C171.607 16.792 172.065 17.0213 172.33 17.3156C172.613 17.6296 172.843 18.1994 172.843 19.208H174.843ZM170.763 14.792C169.646 14.792 168.615 15.0856 167.698 15.6816L168.788 17.3584C169.364 16.9838 170.013 16.792 170.763 16.792V14.792ZM167.688 15.6879C166.859 16.241 166.094 16.9706 165.388 17.8575L166.954 19.1025C167.555 18.3468 168.171 17.7696 168.798 17.352L167.688 15.6879ZM165.171 18.48V26.88H167.171V18.48H165.171ZM165.171 26.88C165.171 26.9549 165.157 26.9886 165.098 27.0432L166.459 28.5088C166.923 28.0781 167.171 27.5145 167.171 26.88H165.171ZM165.072 27.0689C165.024 27.1171 164.982 27.14 164.883 27.14V29.14C165.493 29.14 166.049 28.9202 166.486 28.4831L165.072 27.0689ZM182.757 33.264L182.236 34.1173L182.246 34.1235L182.256 34.1294L182.757 33.264ZM182.561 31.472L181.854 30.7649L181.825 30.7943L181.798 30.8261L182.561 31.472ZM183.877 31.248L184.325 30.3536L184.287 30.335L184.249 30.3195L183.877 31.248ZM192.781 25.872H193.781V23.3367L192.051 25.1893L192.781 25.872ZM184.773 27.188L184.295 28.0659L184.304 28.071L184.314 28.076L184.773 27.188ZM182.225 24.724L181.372 25.2449L181.376 25.2514L182.225 24.724ZM182.225 16.744L183.075 17.2714L183.079 17.2649L182.225 16.744ZM184.773 14.28L185.24 15.1646L185.246 15.1615L184.773 14.28ZM192.781 15.568L192.051 16.2507L193.781 18.1033V15.568H192.781ZM193.145 13.972L193.853 14.6791L193.866 14.666L193.878 14.6524L193.145 13.972ZM194.937 13.972L194.205 14.6525L194.23 14.6796L194.257 14.7048L194.937 13.972ZM193.621 32.816L194.366 33.4838L193.621 32.816ZM190.849 25.116L190.364 24.2418L190.849 25.116ZM192.781 23.604L193.499 24.3005L193.781 24.0095V23.604H192.781ZM192.781 17.836H193.781V17.4305L193.499 17.1395L192.781 17.836ZM190.849 16.324L191.335 15.4498V15.4498L190.849 16.324ZM185.081 17.052L185.773 17.7743L185.773 17.774L185.081 17.052ZM185.081 24.416L184.382 25.1307L184.39 25.1382L184.398 25.1455L185.081 24.416ZM188.749 33.72C187.754 33.72 186.745 33.5914 185.72 33.3308L185.227 35.2692C186.405 35.5686 187.58 35.72 188.749 35.72V33.72ZM185.72 33.3308C184.676 33.0655 183.864 32.7492 183.258 32.3986L182.256 34.1294C183.069 34.6002 184.068 34.9745 185.227 35.2692L185.72 33.3308ZM183.279 32.4107C183.264 32.4019 183.261 32.3975 183.263 32.3995C183.265 32.4019 183.268 32.4054 183.269 32.4077C183.272 32.4136 183.253 32.3834 183.253 32.284H181.253C181.253 33.0234 181.557 33.7024 182.236 34.1173L183.279 32.4107ZM183.253 32.284C183.253 32.2378 183.262 32.1926 183.325 32.1179L181.798 30.8261C181.451 31.2367 181.253 31.7329 181.253 32.284H183.253ZM183.269 32.1791C183.295 32.1524 183.311 32.1458 183.315 32.144C183.319 32.1422 183.335 32.136 183.373 32.136V30.136C182.791 30.136 182.266 30.353 181.854 30.7649L183.269 32.1791ZM183.373 32.136C183.36 32.136 183.399 32.1337 183.506 32.1765L184.249 30.3195C183.983 30.213 183.686 30.136 183.373 30.136V32.136ZM183.43 32.1424C184.994 32.9245 186.688 33.312 188.497 33.312V31.312C186.984 31.312 185.598 30.9902 184.325 30.3536L183.43 32.1424ZM188.497 33.312C190.096 33.312 191.475 32.8831 192.44 31.8554C193.393 30.8396 193.781 29.4083 193.781 27.748H191.781C191.781 29.1304 191.456 29.9811 190.981 30.4866C190.518 30.9802 189.755 31.312 188.497 31.312V33.312ZM193.781 27.748V25.872H191.781V27.748H193.781ZM192.051 25.1893C190.906 26.4147 189.571 27 187.993 27V29C190.149 29 192.006 28.1666 193.512 26.5547L192.051 25.1893ZM187.993 27C187.063 27 186.147 26.7729 185.233 26.3L184.314 28.076C185.491 28.6857 186.721 29 187.993 29V27ZM185.252 26.3101C184.391 25.8402 183.664 25.1459 183.075 24.1966L181.376 25.2514C182.131 26.4674 183.103 27.4158 184.295 28.0659L185.252 26.3101ZM183.079 24.2031C182.522 23.2894 182.217 22.1439 182.217 20.72H180.217C180.217 22.4321 180.585 23.9559 181.372 25.2449L183.079 24.2031ZM182.217 20.72C182.217 19.2954 182.522 18.1628 183.075 17.2714L181.376 16.2166C180.585 17.4905 180.217 19.0086 180.217 20.72H182.217ZM183.079 17.2649C183.668 16.2998 184.39 15.6127 185.24 15.1646L184.307 13.3954C183.104 14.03 182.127 14.9855 181.372 16.2231L183.079 17.2649ZM185.246 15.1615C186.157 14.6732 187.069 14.44 187.993 14.44V12.44C186.715 12.44 185.48 12.7668 184.301 13.3985L185.246 15.1615ZM187.993 14.44C189.571 14.44 190.906 15.0253 192.051 16.2507L193.512 14.8853C192.006 13.2734 190.149 12.44 187.993 12.44V14.44ZM193.781 15.568V14.868H191.781V15.568H193.781ZM193.781 14.868C193.781 14.7686 193.804 14.7273 193.853 14.6791L192.438 13.2649C192.001 13.702 191.781 14.258 191.781 14.868H193.781ZM193.878 14.6524C193.933 14.5936 193.967 14.58 194.041 14.58V12.58C193.407 12.58 192.843 12.8277 192.413 13.2915L193.878 14.6524ZM194.041 14.58C194.116 14.58 194.15 14.5936 194.205 14.6525L195.67 13.2915C195.24 12.8277 194.676 12.58 194.041 12.58V14.58ZM194.257 14.7048C194.316 14.7594 194.329 14.7931 194.329 14.868H196.329C196.329 14.2335 196.082 13.6699 195.618 13.2392L194.257 14.7048ZM194.329 14.868V27.384H196.329V14.868H194.329ZM194.329 27.384C194.329 29.5834 193.798 31.122 192.877 32.1482L194.366 33.4838C195.723 31.9714 196.329 29.8886 196.329 27.384H194.329ZM192.877 32.1482C191.972 33.1575 190.647 33.72 188.749 33.72V35.72C191.07 35.72 192.994 35.0131 194.366 33.4838L192.877 32.1482ZM188.525 26.676C189.548 26.676 190.495 26.4571 191.335 25.9902L190.364 24.2418C189.86 24.5216 189.257 24.676 188.525 24.676V26.676ZM191.335 25.9902C192.104 25.5627 192.825 24.9951 193.499 24.3005L192.064 22.9075C191.506 23.4823 190.938 23.9226 190.364 24.2418L191.335 25.9902ZM193.781 23.604V17.836H191.781V23.604H193.781ZM193.499 17.1395C192.825 16.4449 192.104 15.8773 191.335 15.4498L190.364 17.1982C190.938 17.5174 191.506 17.9577 192.064 18.5325L193.499 17.1395ZM191.335 15.4498C190.495 14.9829 189.548 14.764 188.525 14.764V16.764C189.257 16.764 189.86 16.9184 190.364 17.1982L191.335 15.4498ZM188.525 14.764C186.903 14.764 185.496 15.2696 184.39 16.33L185.773 17.774C186.459 17.117 187.348 16.764 188.525 16.764V14.764ZM184.39 16.3297C183.258 17.4134 182.765 18.9335 182.765 20.72H184.765C184.765 19.2959 185.15 18.3706 185.773 17.7743L184.39 16.3297ZM182.765 20.72C182.765 22.5079 183.258 24.031 184.382 25.1307L185.781 23.7013C185.15 23.0836 184.765 22.1428 184.765 20.72H182.765ZM184.398 25.1455C185.505 26.1838 186.91 26.676 188.525 26.676V24.676C187.341 24.676 186.45 24.3282 185.765 23.6865L184.398 25.1455Z" fill="#111111"/>
</svg>
